<svg xmlns="http://www.w3.org/2000/svg" viewBox="0 0 109.27 108.96"><defs><style>.cls-1{fill:#b4824b;}.cls-2{fill:#2f2f31;}.cls-3{opacity:0.15;}</style></defs><g id="Layer_2" data-name="Layer 2"><g id="Layer_1-2" data-name="Layer 1"><ellipse class="cls-1" cx="89.44" cy="88.05" rx="19.73" ry="15.29" transform="translate(-35.05 104) rotate(-51.85)"/><path class="cls-2" d="M85.26,109a15.54,15.54,0,0,1-9.7-3.23c-7.82-6.15-8-19.07-.3-28.82,4.8-6.11,11.66-9.77,18.35-9.77a15.52,15.52,0,0,1,9.71,3.24c7.82,6.14,8,19.07.3,28.81C98.81,105.31,92,109,85.26,109Zm8.35-36.34c-4.94,0-10.32,2.94-14,7.68-5.79,7.37-6.07,16.84-.63,21.12a10.11,10.11,0,0,0,6.32,2.06c4.95,0,10.33-2.94,14-7.67,5.79-7.37,6.07-16.84.63-21.12A10.15,10.15,0,0,0,93.61,72.62Z"/><path class="cls-1" d="M103.32,74.16S89.47,78.7,89.44,88.05c0,7.58-13.64,13.28-13.64,13.28"/><path class="cls-2" d="M75.8,104.07a2.74,2.74,0,0,1-1.06-5.26c3.1-1.31,11.94-6.08,12-10.77,0-11.2,15.13-16.28,15.77-16.49a2.74,2.74,0,1,1,1.71,5.21c-3.33,1.1-12,5.28-12,11.3,0,9.14-13.76,15.15-15.32,15.8A2.67,2.67,0,0,1,75.8,104.07Z"/><path class="cls-3" d="M101.63,72.53a12.23,12.23,0,0,0-3.38-1.84c2.15,5.69.79,13.28-4.09,19.5-5.69,7.24-14.3,10.28-20.84,7.92a12.45,12.45,0,0,0,3.93,5.46c6.64,5.22,17.48,2.5,24.22-6.07S108.27,77.75,101.63,72.53Z"/><ellipse class="cls-1" cx="27.61" cy="90.55" rx="15.54" ry="12.04" transform="translate(-18.44 7.84) rotate(-12.15)"/><path class="cls-2" d="M26,105.51c-8.15,0-14.83-4.57-16.23-11.12A13.46,13.46,0,0,1,13,82.77,20.71,20.71,0,0,1,24.51,76.1a22.4,22.4,0,0,1,4.74-.51c8.15,0,14.82,4.57,16.23,11.11,1.72,8-4.9,16.18-14.76,18.3A23.08,23.08,0,0,1,26,105.51Zm3.27-24.44a16.86,16.86,0,0,0-3.59.39,15.15,15.15,0,0,0-8.48,4.84,8.11,8.11,0,0,0-2.07,6.94C16,97.23,20.44,100,26,100a17.54,17.54,0,0,0,3.59-.39c6.9-1.49,11.63-6.77,10.55-11.79C39.26,83.86,34.79,81.07,29.25,81.07Z"/><path class="cls-1" d="M43,89.11s-10.67-4.22-15.4,1.44c-3.82,4.58-14.94,1.18-14.94,1.18"/><path class="cls-2" d="M20.55,95.68a32.42,32.42,0,0,1-8.68-1.33,2.74,2.74,0,1,1,1.6-5.24c3.79,1.15,10.24,1.84,12-.32,5.93-7.09,18-2.43,18.51-2.22a2.74,2.74,0,1,1-2,5.09h0c-.09,0-9-3.35-12.29.64C27.53,94.93,23.94,95.68,20.55,95.68Z"/><path class="cls-3" d="M42.8,87.28c-.78-3.66-3.64-6.46-7.47-7.89.05.19.12.38.16.58,1.4,6.5-4.26,13.23-12.65,15a18.39,18.39,0,0,1-10.25-.61c1.74,6.14,9.43,9.67,17.56,7.92C38.54,100.51,44.2,93.78,42.8,87.28Z"/><ellipse class="cls-1" cx="57.69" cy="56.27" rx="15.76" ry="20.34" transform="translate(-4.2 4.66) rotate(-4.46)"/><path class="cls-2" d="M58.31,79.33c-9.75,0-18.12-9.5-19.07-21.62a26.28,26.28,0,0,1,3.93-16.42c3.15-4.78,7.66-7.63,12.73-8,10.21-.78,19.26,9,20.24,21.57S69.66,78.49,59.49,79.28A11.77,11.77,0,0,1,58.31,79.33ZM57.08,38.7l-.76,0C53,39,49.94,41,47.75,44.31a20.68,20.68,0,0,0-3,13c.75,9.63,7.11,17.08,14.35,16.54s12.37-8.88,11.62-18.56C70,46,64,38.7,57.08,38.7Z"/><path class="cls-1" d="M58.53,36s-7.35,13.11-.84,20.23C63,62,56.61,75.87,56.61,75.87"/><path class="cls-2" d="M56.61,78.61a2.74,2.74,0,0,1-2.49-3.88c1.45-3.17,4.84-13,1.55-16.61-7.76-8.48.13-22.81.47-23.42a2.74,2.74,0,1,1,4.78,2.68h0c-1.77,3.17-5.43,12.43-1.21,17,6.32,6.91.12,21-.61,22.59A2.73,2.73,0,0,1,56.61,78.61Z"/><path class="cls-3" d="M73.41,55.05C72.78,47,68.57,40.3,63,37.45A24.81,24.81,0,0,1,66.1,47.74C67,58.94,60.65,68.57,52,69.25a13,13,0,0,1-6.91-1.46c3.22,5.66,8.51,9.21,14.21,8.76C68,75.88,74.28,66.25,73.41,55.05Z"/><path class="cls-1" d="M25.48,46.1c5.24,6.71,5.28,15.43.08,19.49S11.91,67.51,6.67,60.81,1.39,45.38,6.59,41.32,20.24,39.4,25.48,46.1Z"/><path class="cls-2" d="M19.33,70.39c-5.42,0-11-3-14.82-7.89-6.16-7.89-6-18.36.39-23.34a12.7,12.7,0,0,1,7.92-2.64c5.42,0,11,2.95,14.82,7.89a20.56,20.56,0,0,1,4.54,12.42,13.35,13.35,0,0,1-4.93,10.92A12.68,12.68,0,0,1,19.33,70.39ZM12.82,42a7.29,7.29,0,0,0-4.54,1.47c-4,3.13-3.75,10.15.55,15.65,2.79,3.57,6.81,5.79,10.5,5.79a7.28,7.28,0,0,0,4.55-1.48,8,8,0,0,0,2.82-6.58,15.06,15.06,0,0,0-3.38-9.06C20.53,44.22,16.51,42,12.82,42Z"/><path class="cls-1" d="M8.13,40.33S9,51.69,16.08,53.45c5.74,1.44,7.52,12.83,7.52,12.83"/><path class="cls-2" d="M23.59,69a2.74,2.74,0,0,1-2.7-2.32c-.61-3.87-2.78-9.91-5.48-10.59-8.9-2.22-10-15-10-15.57a2.74,2.74,0,0,1,5.47-.42c0,.13.89,9.43,5.87,10.68,7.3,1.82,9.35,13.71,9.56,15A2.72,2.72,0,0,1,24,69,3.13,3.13,0,0,1,23.59,69Z"/><path class="cls-3" d="M25.48,46.1a18.93,18.93,0,0,0-5.72-4.93c3.59,6.27,3.1,13.52-1.5,17.12-3.56,2.78-8.65,2.65-13.18.14a19.72,19.72,0,0,0,1.59,2.38c5.24,6.7,13.7,8.84,18.89,4.78S30.72,52.81,25.48,46.1Z"/><ellipse class="cls-1" cx="27.61" cy="16.09" rx="15.41" ry="11.94" transform="translate(-4.07 20.29) rotate(-37.78)"/><path class="cls-2" d="M24.18,32.18a13.41,13.41,0,0,1-10.91-5,13.38,13.38,0,0,1-2.09-11.8A20.55,20.55,0,0,1,18.62,4.49,20.51,20.51,0,0,1,31.05,0,13.39,13.39,0,0,1,42,5c5,6.4,2.56,16.59-5.35,22.72A20.57,20.57,0,0,1,24.18,32.18Zm6.87-26.7A15.06,15.06,0,0,0,22,8.82a15,15,0,0,0-5.49,8,8,8,0,0,0,1.11,7.08,8.08,8.08,0,0,0,6.58,2.85,15.08,15.08,0,0,0,9.07-3.34c5.52-4.28,7.48-11,4.38-15A8,8,0,0,0,31.05,5.48Z"/><path class="cls-1" d="M40.77,8.2S29.41,9,27.61,16.09c-1.45,5.73-12.85,7.47-12.85,7.47"/><path class="cls-2" d="M14.76,26.3a2.74,2.74,0,0,1-.41-5.45c3.87-.6,9.93-2.74,10.61-5.44C27.22,6.52,40,5.5,40.57,5.47a2.74,2.74,0,0,1,.4,5.46c-.15,0-9.44.86-10.7,5.83-1.85,7.29-13.75,9.3-15.1,9.51A2.73,2.73,0,0,1,14.76,26.3Z"/><path class="cls-3" d="M39.79,6.65a10,10,0,0,0-5.55-3.51c1.1,4.94-1.35,11-6.62,15.08-4.41,3.42-9.69,4.58-13.94,3.51a9.64,9.64,0,0,0,1.76,3.8c4,5.21,12.77,5.21,19.49,0S43.83,11.86,39.79,6.65Z"/><path class="cls-1" d="M105.89,29.07c-2.11,8.56-9.2,14.17-15.84,12.54s-10.3-9.91-8.19-18.47S91.07,9,97.7,10.6,108,20.5,105.89,29.07Z"/><path class="cls-2" d="M92.39,44.63a12.63,12.63,0,0,1-3-.36,13.78,13.78,0,0,1-9.22-8.19,21.19,21.19,0,0,1-1-13.6c2.13-8.64,8.93-14.91,16.16-14.91a12.14,12.14,0,0,1,3,.37c8.09,2,12.66,11.77,10.19,21.78C106.42,38.36,99.62,44.63,92.39,44.63Zm3-31.58c-4.67,0-9.33,4.62-10.84,10.74a15.72,15.72,0,0,0,.66,10.07A8.47,8.47,0,0,0,90.71,39a7.28,7.28,0,0,0,1.68.2c4.67,0,9.33-4.62,10.84-10.74,1.75-7.08-1-13.88-6.19-15.15A6.73,6.73,0,0,0,95.36,13.05Z"/><path class="cls-1" d="M99.49,11.23s-8.71,8-5.61,14.87c2.5,5.6-5.65,14.34-5.65,14.34"/><path class="cls-2" d="M88.24,43.18a2.71,2.71,0,0,1-1.87-.74,2.74,2.74,0,0,1-.14-3.87c2.25-2.42,6.47-8.39,5.15-11.35-3.86-8.62,5.85-17.63,6.26-18a2.74,2.74,0,1,1,3.7,4c-.13.13-7.16,6.82-5,11.73,3.16,7.06-5.18,16.3-6.14,17.33A2.72,2.72,0,0,1,88.24,43.18Z"/><path class="cls-3" d="M98.08,10.72a18.7,18.7,0,0,1,.5,11c-2.11,8.56-9.2,14.18-15.84,12.54-.13,0-.25-.08-.37-.12,1.41,3.73,4.11,6.55,7.68,7.43,6.64,1.63,13.73-4,15.84-12.54C108,20.67,104.47,12.57,98.08,10.72Z"/></g></g></svg>