<svg xmlns="http://www.w3.org/2000/svg" viewBox="0 0 118.29 134.01"><defs><style>.cls-1{fill:#fff;}.cls-2{fill:#2f2f31;}.cls-3{opacity:0.15;}.cls-4{fill:#513a2b;}</style></defs><g id="Layer_2" data-name="Layer 2"><g id="Layer_1-2" data-name="Layer 1"><polygon class="cls-1" points="78.32 70.96 30.21 70.96 19.34 25.8 89.2 25.8 78.32 70.96"/><path class="cls-2" d="M78.32,73.7H30.21a2.75,2.75,0,0,1-2.67-2.1L16.67,26.44a2.73,2.73,0,0,1,2.67-3.38H89.2a2.73,2.73,0,0,1,2.66,3.38L81,71.6A2.75,2.75,0,0,1,78.32,73.7ZM32.37,68.22h43.8l9.55-39.68H22.82Z"/><polygon class="cls-3" points="76.41 25.8 65.54 70.96 78.32 70.96 89.2 25.8 76.41 25.8"/><path class="cls-1" d="M78.32,80.57H30.21l-10.93,46.2a4,4,0,0,0,4.12,4.5H85.13a4,4,0,0,0,4.12-4.5Z"/><path class="cls-2" d="M85.13,134H23.4a7,7,0,0,1-5.26-2.38,6.6,6.6,0,0,1-1.58-5.24c0-.08,0-.17.05-.26L27.54,79.94a2.74,2.74,0,0,1,2.67-2.11H78.32A2.74,2.74,0,0,1,81,79.94l10.93,46.19c0,.09,0,.18,0,.26a6.6,6.6,0,0,1-1.58,5.24A7,7,0,0,1,85.13,134ZM22,127.23a1.11,1.11,0,0,0,.29.8,1.47,1.47,0,0,0,1.13.49H85.13a1.47,1.47,0,0,0,1.13-.49,1.11,1.11,0,0,0,.29-.8L76.16,83.31H32.37Z"/><path class="cls-3" d="M89.25,126.77,78.32,80.57H65.54l10.93,46.2a4.06,4.06,0,0,1-4.13,4.5H85.13A4,4,0,0,0,89.25,126.77Z"/><rect class="cls-1" x="49.55" y="2.74" width="9.17" height="12.84" rx="2.51"/><path class="cls-2" d="M54.13,18.32A7.32,7.32,0,0,1,46.81,11V7.33a7.33,7.33,0,1,1,14.65,0V11A7.33,7.33,0,0,1,54.13,18.32Zm0-12.84a1.84,1.84,0,0,0-1.84,1.85V11A1.84,1.84,0,1,0,56,11V7.33A1.84,1.84,0,0,0,54.13,5.48Z"/><path class="cls-1" d="M50.48,13.73,19.92,25.8H89.2L58.06,13.71A9.39,9.39,0,0,0,50.48,13.73Z"/><path class="cls-2" d="M89.2,28.54H19.92a2.74,2.74,0,0,1-1-5.29L49.48,11.18a12.24,12.24,0,0,1,9.68,0l31,12a2.74,2.74,0,0,1-1,5.3ZM34.32,23.06H74.56l-17.49-6.8a6.49,6.49,0,0,0-5.47,0Z"/><polygon class="cls-1" points="19.92 25.8 2.74 25.8 30.21 70.96 19.92 25.8"/><path class="cls-2" d="M30.21,73.7a2.74,2.74,0,0,1-2.34-1.32L.4,27.22a2.73,2.73,0,0,1,2.34-4.16H19.92a2.74,2.74,0,0,1,2.67,2.13L32.88,70.35a2.75,2.75,0,0,1-1.64,3.15A2.69,2.69,0,0,1,30.21,73.7ZM7.61,28.54,23.79,55.13,17.73,28.54Z"/><rect class="cls-4" x="33.24" y="70.96" width="42.62" height="9.61"/><path class="cls-2" d="M75.87,83.31H33.24a2.74,2.74,0,0,1-2.74-2.74V71a2.74,2.74,0,0,1,2.74-2.74H75.87A2.74,2.74,0,0,1,78.61,71v9.61A2.74,2.74,0,0,1,75.87,83.31ZM36,77.83H73.13V73.7H36Z"/><path class="cls-4" d="M91.57,75.53h0a24,24,0,0,0,24-24V38.64a11.47,11.47,0,0,0-11.47-11.47H89.2l-2.4,8.39h15a4.84,4.84,0,0,1,4.84,4.84V51.29a15.1,15.1,0,0,1-15.11,15.1h-.86A4.57,4.57,0,0,0,86.14,71h0a4.57,4.57,0,0,0,4.57,4.57Z"/><path class="cls-2" d="M91.57,78.27h-.86a7.31,7.31,0,1,1,0-14.62h.86a12.38,12.38,0,0,0,12.37-12.36V40.4a2.1,2.1,0,0,0-2.1-2.1h-15a2.73,2.73,0,0,1-2.63-3.49l2.39-8.4a2.75,2.75,0,0,1,2.64-2h14.88a14.22,14.22,0,0,1,14.21,14.21V51.55A26.75,26.75,0,0,1,91.57,78.27Zm-.86-9.14a1.83,1.83,0,1,0,0,3.66h.86a21.26,21.26,0,0,0,21.24-21.24V38.64a8.74,8.74,0,0,0-8.73-8.73H91.26l-.83,2.91h11.41a7.59,7.59,0,0,1,7.58,7.58V51.29A17.86,17.86,0,0,1,91.57,69.13Z"/><line class="cls-1" x1="35.62" y1="25.8" x2="42.25" y2="70.96"/><path class="cls-2" d="M42.24,73.7a2.74,2.74,0,0,1-2.7-2.34L32.91,26.19a2.74,2.74,0,1,1,5.43-.79L45,70.56a2.74,2.74,0,0,1-2.31,3.11A2.83,2.83,0,0,1,42.24,73.7Z"/><line class="cls-1" x1="42.25" y1="80.57" x2="33.24" y2="131.27"/><path class="cls-2" d="M33.25,134a2.81,2.81,0,0,1-.49,0,2.72,2.72,0,0,1-2.21-3.17l9-50.7a2.74,2.74,0,0,1,5.4,1l-9,50.7A2.74,2.74,0,0,1,33.25,134Z"/><line class="cls-1" x1="73.23" y1="25.8" x2="66.61" y2="70.96"/><path class="cls-2" d="M66.61,73.7a2.69,2.69,0,0,1-.4,0,2.74,2.74,0,0,1-2.32-3.11L70.52,25.4a2.74,2.74,0,1,1,5.42.79L69.32,71.36A2.74,2.74,0,0,1,66.61,73.7Z"/><line class="cls-1" x1="66.61" y1="80.57" x2="75.61" y2="131.27"/><path class="cls-2" d="M75.61,134a2.75,2.75,0,0,1-2.7-2.26l-9-50.7a2.74,2.74,0,1,1,5.39-1l9,50.7A2.74,2.74,0,0,1,76.09,134,2.7,2.7,0,0,1,75.61,134Z"/></g></g></svg>