<svg xmlns="http://www.w3.org/2000/svg" viewBox="0 0 119.34 110.92"><defs><style>.cls-1{fill:#fff;}.cls-2{fill:#2f2f31;}.cls-3{opacity:0.15;}</style></defs><g id="Layer_2" data-name="Layer 2"><g id="Layer_1-2" data-name="Layer 1"><path class="cls-1" d="M51,48H2.74c3.5,23.33,10.73,46.54,24.39,57.75a10.66,10.66,0,0,0,6.79,2.46H68.15a10.67,10.67,0,0,0,6.8-2.46C88.61,94.51,95.84,71.3,99.34,48Z"/><path class="cls-2" d="M68.15,110.92H33.92a13.51,13.51,0,0,1-8.53-3.08C9.89,95.12,3,68.48,0,48.38a2.75,2.75,0,0,1,2.71-3.15h96.6a2.75,2.75,0,0,1,2.08,1,2.72,2.72,0,0,1,.63,2.19c-3,20.1-9.86,46.73-25.36,59.46A13.52,13.52,0,0,1,68.15,110.92ZM6,50.71C9,69.4,15.48,92.61,28.86,103.6a7.88,7.88,0,0,0,5.06,1.84H68.15a7.88,7.88,0,0,0,5.06-1.84c13.39-11,19.84-34.2,22.92-52.89Z"/><path class="cls-3" d="M84.72,48C81.23,71.3,74,94.51,60.34,105.72a10.69,10.69,0,0,1-6.8,2.46H68.15a10.67,10.67,0,0,0,6.8-2.46C88.61,94.51,95.84,71.3,99.34,48Z"/><path class="cls-1" d="M101.36,48a13.83,13.83,0,0,0-2,.17c-.61,4-1.34,8.09-2.19,12.07a5.63,5.63,0,0,1,3-.9c3.36,0,6.08,1.8,6.08,6.62,0,5.93-7.3,9.43-10.65,9.43-1.16,0-1.69-.69-1.9-1.74a102.71,102.71,0,0,1-5.56,14.3,5.11,5.11,0,0,0,1.79.32c8.41,0,26.71-8.77,26.71-23.64C116.6,52.51,109.78,48,101.36,48Z"/><path class="cls-2" d="M89.89,91a8.12,8.12,0,0,1-2.7-.47,2.73,2.73,0,0,1-1.56-3.78A98.46,98.46,0,0,0,91,72.8a2.74,2.74,0,0,1,5.15-.24c2.55-.39,7.28-2.94,7.28-6.63,0-3.41-1.61-3.88-3.34-3.88a2.9,2.9,0,0,0-1.55.48,2.75,2.75,0,0,1-4.14-2.9c.83-3.84,1.55-7.84,2.16-11.9a2.74,2.74,0,0,1,2.32-2.3,17.13,17.13,0,0,1,2.44-.2c11.26,0,18,7.24,18,19.37C119.34,81,100.27,91,89.89,91Zm5.19-12.9c-.86,2.5-1.79,4.9-2.76,7.19,8-1.39,21.54-9,21.54-20.67,0-9.09-4.1-13.76-12.18-13.88-.31,2-.66,3.93-1,5.86,5.13.22,8.3,3.76,8.3,9.35,0,7.88-8.85,12.17-13.39,12.17Z"/><path class="cls-3" d="M101.36,48a13.83,13.83,0,0,0-2,.17c-.61,4-1.34,8.09-2.19,12.07a5.63,5.63,0,0,1,3-.9c3.36,0,6.08,1.8,6.08,6.62,0,5.93-7.3,9.43-10.65,9.43-1.16,0-1.69-.69-1.9-1.74a102.71,102.71,0,0,1-5.56,14.3,5.11,5.11,0,0,0,1.79.32c8.41,0,26.71-8.77,26.71-23.64C116.6,52.51,109.78,48,101.36,48Z"/><path class="cls-2" d="M33.27,35.74A2.74,2.74,0,0,1,30.53,33V15.66a2.74,2.74,0,1,1,5.48,0V33A2.74,2.74,0,0,1,33.27,35.74Z"/><path class="cls-2" d="M67.89,35.74A2.73,2.73,0,0,1,65.15,33V15.66a2.74,2.74,0,1,1,5.48,0V33A2.74,2.74,0,0,1,67.89,35.74Z"/><path class="cls-2" d="M50.56,35.74A2.74,2.74,0,0,1,47.82,33V2.74a2.74,2.74,0,1,1,5.48,0V33A2.74,2.74,0,0,1,50.56,35.74Z"/><line class="cls-1" x1="21.55" y1="98.24" x2="80.53" y2="98.24"/><path class="cls-2" d="M80.53,101h-59a2.74,2.74,0,1,1,0-5.48h59a2.74,2.74,0,0,1,0,5.48Z"/></g></g></svg>